<?xml version="1.0" encoding="iso-8859-1"?>
<!-- Generator: Adobe Illustrator 19.0.0, SVG Export Plug-In . SVG Version: 6.00 Build 0)  -->
<svg version="1.1" id="Capa_1" xmlns="http://www.w3.org/2000/svg" xmlns:xlink="http://www.w3.org/1999/xlink" x="0px" y="0px"
	 viewBox="0 0 512 512" style="enable-background:new 0 0 512 512;" xml:space="preserve">
<g>
	<g>
		<path d="M406,60h-47.58c-6.192-17.458-22.865-30-42.42-30h-17.57C292.239,12.539,275.556,0,256,0
			c-19.556,0-36.239,12.539-42.43,30H196c-19.555,0-36.228,12.542-42.42,30H106c-24.813,0-45,20.187-45,45v362
			c0,24.813,20.187,45,45,45h300c24.813,0,45-20.187,45-45V105C451,80.187,430.813,60,406,60z M181,75c0-8.271,6.729-15,15-15h30
			c8.284,0,15-6.716,15-15c0-8.271,6.729-15,15-15s15,6.729,15,15c0,8.284,6.716,15,15,15h30c8.271,0,15,6.729,15,15v15H181V75z
			 M421,467c0,8.271-6.729,15-15,15H106c-8.271,0-15-6.729-15-15V105c0-8.271,6.729-15,15-15h45v15c0,8.284,6.716,15,15,15h180
			c8.284,0,15-6.716,15-15V90h45c8.271,0,15,6.729,15,15V467z"/>
	</g>
</g>
<g>
	<g>
		<path d="M380.172,192.827c-17.545-17.545-46.094-17.546-63.639,0c-3.73,3.73-165.245,165.245-170.993,170.993
			c-1.647,1.646-2.887,3.654-3.624,5.863l-21.213,63.64c-1.796,5.39-0.394,11.333,3.624,15.35c4.023,4.022,9.969,5.418,15.35,3.623
			l63.64-21.213c2.209-0.737,4.217-1.977,5.863-3.624c2.853-2.853,155.816-155.816,170.992-170.993
			C397.717,238.921,397.717,210.372,380.172,192.827z M190.471,403.742l-31.82,10.606l10.606-31.819l5.529-5.529L196,398.213
			L190.471,403.742z M217.213,377L196,355.787L305.926,245.86l21.213,21.213L217.213,377z M358.959,235.254l-10.606,10.606
			l-21.213-21.213l10.607-10.607c5.848-5.847,15.364-5.848,21.212,0.001C364.807,219.89,364.807,229.406,358.959,235.254z"/>
	</g>
</g>
<g>
</g>
<g>
</g>
<g>
</g>
<g>
</g>
<g>
</g>
<g>
</g>
<g>
</g>
<g>
</g>
<g>
</g>
<g>
</g>
<g>
</g>
<g>
</g>
<g>
</g>
<g>
</g>
<g>
</g>
</svg>
